# xmcd
#
# Track frame offsets: 
#        150
#        16346
#        28736
#        40266
#        46813
#        59613
#        67421
#        76102
#        95245
#        102813
#        119914
#        123546
#        136664
#        148545
#        153952
#        163798
#        188420
#        204674
#        217800
#        228449
#        247535
#        257545
#        271658
#        283058
#        292328
#        303568
#        309102
#
# Disc length: 4193 seconds
#
# Revision: 0
# Processed by: cddbd v1.5.2PL0 Copyright (c) Steve Scherf et al.
# Submitted via: ExactAudioCopy v1.0b3
#
DISCID=83105f1b
DTITLE=VA - Dankó nóták - Most van a nap lemenobe
DYEAR=2008
DGENRE=Nóta
TTITLE0=Darumadár gyere velem
TTITLE1=Rám se nézett
TTITLE2=Nyáron vályogot vetek
TTITLE3=Még azt mondják, nincs boszorkány Szegeden
TTITLE4=Némuljon el a hegedü
TTITLE5=Nem jó, nem jó
TTITLE6=Páros élet a legszebb a világon
TTITLE7=Küldöm a levelet Balogh Máriának
TTITLE8=Felvégi ház, alvégi ház
TTITLE9=Búsan szól a kecskeméti öreg templom harangja
TTITLE10=Csitt, babám
TTITLE11=Jegenyefán fészket rak a csóka
TTITLE12=Elragadta galambomat a Balaton tölem
TTITLE13=Nem fúj a szél, nem forog a dorozsmai szélmalom
TTITLE14=Hamis a rózsám
TTITLE15=Most van a nap lemenöbe
TTITLE16=Gyönge violának letörött az ága
TTITLE17=Elmegyek a tengerszélre
TTITLE18=Nyisd ki anyám a virágos ablakod
TTITLE19=Vásárhelyi sétatéren
TTITLE20=Künn a pusztán, Átokházán születtem
TTITLE21=Bíró uram, bíró uram
TTITLE22=Vihar a levelet ide-oda fújja
TTITLE23=Ide csal, oda csal
TTITLE24=Eltörött a hegedüm
TTITLE25=Szöke kislány csitt, csitt, csitt
TTITLE26=Egy cica, két cica
EXTD=
EXTT0=
EXTT1=
EXTT2=
EXTT3=
EXTT4=
EXTT5=
EXTT6=
EXTT7=
EXTT8=
EXTT9=
EXTT10=
EXTT11=
EXTT12=
EXTT13=
EXTT14=
EXTT15=
EXTT16=
EXTT17=
EXTT18=
EXTT19=
EXTT20=
EXTT21=
EXTT22=
EXTT23=
EXTT24=
EXTT25=
EXTT26=
PLAYORDER=
